<svg width="28" height="28" viewBox="0 0 28 28" fill="none" xmlns="http://www.w3.org/2000/svg">
<g clip-path="url(#clip0_769_7140)">
<path d="M14 3C11.8244 3 9.69767 3.64514 7.88873 4.85383C6.07979 6.06253 4.66989 7.78049 3.83733 9.79048C3.00477 11.8005 2.78693 14.0122 3.21137 16.146C3.6358 18.2798 4.68345 20.2398 6.22183 21.7782C7.76021 23.3165 9.72022 24.3642 11.854 24.7886C13.9878 25.2131 16.1995 24.9952 18.2095 24.1627C20.2195 23.3301 21.9375 21.9202 23.1462 20.1113C24.3549 18.3023 25 16.1756 25 14C25 11.0826 23.8411 8.28472 21.7782 6.22182C19.7153 4.15893 16.9174 3 14 3ZM14 23.625C12.0964 23.625 10.2355 23.0605 8.65264 22.0029C7.06982 20.9453 5.83616 19.4421 5.10766 17.6833C4.37917 15.9246 4.18856 13.9893 4.55995 12.1223C4.93133 10.2552 5.84802 8.54018 7.1941 7.1941C8.54018 5.84802 10.2552 4.93132 12.1223 4.55994C13.9893 4.18856 15.9246 4.37917 17.6833 5.10766C19.4421 5.83615 20.9453 7.06981 22.0029 8.65263C23.0605 10.2355 23.625 12.0964 23.625 14C23.625 16.5527 22.6109 19.0009 20.8059 20.8059C19.0009 22.6109 16.5527 23.625 14 23.625Z" fill="currentColor"/>
<path d="M18.8562 11.1434C18.7651 11.0516 18.6418 11 18.5134 11C18.3849 11 18.2617 11.0516 18.1706 11.1434L12.7734 16.5942L9.85599 13.6345C9.76701 13.537 9.64351 13.4794 9.51265 13.4743C9.3818 13.4692 9.25432 13.5171 9.15824 13.6074C9.06217 13.6976 9.00538 13.8229 9.00036 13.9557C8.99535 14.0884 9.04252 14.2178 9.1315 14.3152L12.7734 18L18.8562 11.8439C18.9017 11.798 18.9379 11.7435 18.9626 11.6834C18.9873 11.6233 19 11.5588 19 11.4937C19 11.4286 18.9873 11.3641 18.9626 11.304C18.9379 11.2439 18.9017 11.1893 18.8562 11.1434Z" fill="currentColor"/>
</g>
<defs>
<clipPath id="clip0_769_7140">
<rect width="28" height="28" fill="white"/>
</clipPath>
</defs>
</svg>
