<svg width="28" height="28" viewBox="0 0 28 28" fill="none" xmlns="http://www.w3.org/2000/svg">
<path d="M14 2.84375C11.7935 2.84375 9.63656 3.49805 7.80192 4.72392C5.96729 5.94978 4.53736 7.69215 3.69297 9.73069C2.84858 11.7692 2.62765 14.0124 3.05812 16.1765C3.48859 18.3406 4.55112 20.3284 6.11134 21.8887C7.67157 23.4489 9.65943 24.5114 11.8235 24.9419C13.9876 25.3724 16.2308 25.1514 18.2693 24.307C20.3079 23.4626 22.0502 22.0327 23.2761 20.1981C24.502 18.3634 25.1563 16.2065 25.1563 14C25.1505 11.043 23.9732 8.20868 21.8823 6.11773C19.7913 4.02677 16.957 2.84953 14 2.84375ZM14 23.8437C12.0531 23.8437 10.1499 23.2664 8.53111 22.1848C6.91231 21.1031 5.65062 19.5658 4.90557 17.767C4.16052 15.9683 3.96558 13.9891 4.3454 12.0796C4.72522 10.1701 5.66275 8.41609 7.03942 7.03942C8.4161 5.66274 10.1701 4.72522 12.0796 4.34539C13.9891 3.96557 15.9683 4.16051 17.767 4.90556C19.5658 5.65061 21.1031 6.91231 22.1848 8.53111C23.2664 10.1499 23.8438 12.0531 23.8438 14C23.8409 16.6098 22.8028 19.1119 20.9574 20.9574C19.112 22.8028 16.6098 23.8409 14 23.8437ZM13.3438 14.875V8.75C13.3438 8.57595 13.4129 8.40903 13.536 8.28596C13.659 8.16289 13.826 8.09375 14 8.09375C14.1741 8.09375 14.341 8.16289 14.464 8.28596C14.5871 8.40903 14.6563 8.57595 14.6563 8.75V14.875C14.6563 15.049 14.5871 15.216 14.464 15.339C14.341 15.4621 14.1741 15.5312 14 15.5312C13.826 15.5312 13.659 15.4621 13.536 15.339C13.4129 15.216 13.3438 15.049 13.3438 14.875ZM15.0938 18.8125C15.0938 19.0288 15.0296 19.2403 14.9094 19.4202C14.7892 19.6 14.6184 19.7402 14.4186 19.823C14.2187 19.9058 13.9988 19.9274 13.7866 19.8852C13.5745 19.843 13.3796 19.7389 13.2266 19.5859C13.0736 19.4329 12.9695 19.238 12.9273 19.0259C12.8851 18.8137 12.9067 18.5938 12.9895 18.3939C13.0723 18.1941 13.2125 18.0233 13.3923 17.9031C13.5722 17.7829 13.7837 17.7187 14 17.7187C14.2901 17.7187 14.5683 17.834 14.7734 18.0391C14.9785 18.2442 15.0938 18.5224 15.0938 18.8125Z" fill="currentColor"/>
</svg>
