<svg width="28" height="28" viewBox="0 0 28 28" fill="none" xmlns="http://www.w3.org/2000/svg">
<path d="M14 2.84375C11.7935 2.84375 9.63656 3.49805 7.80192 4.72392C5.96729 5.94978 4.53736 7.69215 3.69297 9.73069C2.84858 11.7692 2.62765 14.0124 3.05812 16.1765C3.48859 18.3406 4.55112 20.3284 6.11134 21.8887C7.67157 23.4489 9.65943 24.5114 11.8235 24.9419C13.9876 25.3724 16.2308 25.1514 18.2693 24.307C20.3079 23.4626 22.0502 22.0327 23.2761 20.1981C24.502 18.3634 25.1563 16.2065 25.1563 14C25.1505 11.043 23.9732 8.20868 21.8823 6.11773C19.7913 4.02677 16.957 2.84953 14 2.84375ZM14 23.8437C12.0531 23.8437 10.1499 23.2664 8.53111 22.1848C6.91231 21.1031 5.65062 19.5658 4.90557 17.767C4.16052 15.9683 3.96558 13.9891 4.3454 12.0796C4.72522 10.1701 5.66275 8.41609 7.03942 7.03942C8.4161 5.66274 10.1701 4.72522 12.0796 4.34539C13.9891 3.96557 15.9683 4.16051 17.767 4.90556C19.5658 5.65061 21.1031 6.91231 22.1848 8.53111C23.2664 10.1499 23.8438 12.0531 23.8438 14C23.8409 16.6098 22.8028 19.1119 20.9574 20.9574C19.112 22.8028 16.6098 23.8409 14 23.8437Z" fill="currentColor"/>
<path d="M6 6.88889L21.1111 22L22 21.1111L6.88889 6L6 6.88889Z" fill="currentColor"/>
</svg>
