<svg width="24" height="25" viewBox="0 0 24 25" fill="none" xmlns="http://www.w3.org/2000/svg">
<path d="M16.9989 1.79989L16.5844 0.889831L16.4197 0.964831L16.2918 1.09278L16.9989 1.79989ZM22.6558 7.45674L23.3629 8.16385L23.4908 8.0359L23.5658 7.87123L22.6558 7.45674ZM8.25649 21.856L8.37564 22.8489L8.71904 22.8077L8.9636 22.5631L8.25649 21.856ZM1.82825 22.6274L0.83537 22.5083L0.683731 23.7719L1.94739 23.6203L1.82825 22.6274ZM2.59964 16.1992L1.89253 15.492L1.64797 15.7366L1.60676 16.08L2.59964 16.1992ZM16.9989 1.79989C17.4134 2.70995 17.4129 2.71016 17.4125 2.71036C17.4123 2.71042 17.4119 2.71062 17.4116 2.71075C17.4111 2.711 17.4106 2.71123 17.4101 2.71145C17.4091 2.71188 17.4083 2.71225 17.4076 2.71255C17.4062 2.71316 17.4054 2.71351 17.4052 2.71363C17.4046 2.71386 17.4063 2.71314 17.41 2.71159C17.4175 2.7085 17.4332 2.70214 17.4565 2.6935C17.5034 2.67617 17.5797 2.65006 17.6805 2.62276C17.8837 2.56772 18.1757 2.51066 18.5187 2.50593C19.1849 2.49674 20.0653 2.68064 20.9201 3.53551L22.3343 2.1213C21.0342 0.821179 19.6004 0.490821 18.4912 0.506122C17.9465 0.513634 17.4855 0.603509 17.1576 0.692337C16.9928 0.736972 16.8591 0.782031 16.7622 0.817886C16.7137 0.835843 16.6742 0.851582 16.6444 0.863935C16.6295 0.870115 16.617 0.875457 16.607 0.879818C16.6019 0.881999 16.5976 0.883936 16.5938 0.88561C16.5919 0.886448 16.5902 0.887219 16.5886 0.887924C16.5879 0.888276 16.5871 0.888611 16.5864 0.888929C16.5861 0.889088 16.5856 0.889313 16.5854 0.889393C16.5849 0.889614 16.5844 0.889831 16.9989 1.79989ZM20.9201 3.53551C21.775 4.39038 21.9589 5.27078 21.9497 5.93691C21.945 6.27993 21.8879 6.57196 21.8329 6.77514C21.8056 6.87592 21.7795 6.95229 21.7621 6.99911C21.7535 7.02244 21.7471 7.03816 21.7441 7.04563C21.7425 7.04936 21.7418 7.051 21.742 7.05048C21.7421 7.05021 21.7425 7.0494 21.7431 7.04804C21.7434 7.04735 21.7438 7.04653 21.7442 7.04557C21.7444 7.04509 21.7446 7.04457 21.7449 7.04402C21.745 7.04375 21.7452 7.04331 21.7453 7.04317C21.7455 7.04272 21.7457 7.04226 22.6558 7.45674C23.5658 7.87123 23.566 7.87075 23.5663 7.87026C23.5663 7.87009 23.5666 7.86959 23.5667 7.86924C23.567 7.86854 23.5674 7.86779 23.5677 7.86701C23.5684 7.86545 23.5692 7.86373 23.57 7.86185C23.5717 7.85809 23.5736 7.8537 23.5758 7.84869C23.5802 7.83867 23.5855 7.82616 23.5917 7.81125C23.6041 7.78143 23.6198 7.74192 23.6378 7.69341C23.6736 7.59655 23.7187 7.46285 23.7633 7.29808C23.8521 6.97017 23.942 6.50918 23.9495 5.96449C23.9648 4.8552 23.6345 3.42142 22.3343 2.1213L20.9201 3.53551ZM21.9486 6.74964L7.54938 21.1489L8.9636 22.5631L23.3629 8.16385L21.9486 6.74964ZM8.13735 20.8631L1.7091 21.6345L1.94739 23.6203L8.37564 22.8489L8.13735 20.8631ZM2.82112 22.7465L3.59251 16.3183L1.60676 16.08L0.83537 22.5083L2.82112 22.7465ZM3.30674 16.9063L17.706 2.507L16.2918 1.09278L1.89253 15.492L3.30674 16.9063ZM13.56 5.2387L18.9474 10.6262L20.3617 9.21197L14.9742 3.82449L13.56 5.2387Z" fill="currentColor"/>
</svg>
