<svg width="24" height="24" viewBox="0 0 24 24" fill="none" xmlns="http://www.w3.org/2000/svg">
<path d="M3 5V4H1.94875L2.00125 5.04994L3 5ZM21 5L21.9988 5.04994L22.0512 4H21V5ZM3.66248 18.2497L4.66124 18.1997L3.66248 18.2497ZM20.3375 18.2497L19.3388 18.1997L20.3375 18.2497ZM16 5C16 5.55228 16.4477 6 17 6C17.5523 6 18 5.55228 18 5H16ZM6 5C6 5.55228 6.44772 6 7 6C7.55228 6 8 5.55228 8 5H6ZM1 4C0.447715 4 0 4.44772 0 5C0 5.55228 0.447715 6 1 6V4ZM23 6C23.5523 6 24 5.55228 24 5C24 4.44772 23.5523 4 23 4V6ZM16 11C16 10.4477 15.5523 10 15 10C14.4477 10 14 10.4477 14 11H16ZM14 16C14 16.5523 14.4477 17 15 17C15.5523 17 16 16.5523 16 16H14ZM10 11C10 10.4477 9.55229 10 9 10C8.44772 10 8 10.4477 8 11H10ZM8 16C8 16.5523 8.44772 17 9 17C9.55229 17 10 16.5523 10 16H8ZM3 6H21V4H3V6ZM20.0012 4.95006L19.3388 18.1997L21.3363 18.2996L21.9988 5.04994L20.0012 4.95006ZM15.3438 22H8.65624V24H15.3438V22ZM4.66124 18.1997L3.99875 4.95006L2.00125 5.04994L2.66373 18.2996L4.66124 18.1997ZM8.65624 22C6.52475 22 4.76768 20.3286 4.66124 18.1997L2.66373 18.2996C2.82339 21.4929 5.459 24 8.65624 24V22ZM19.3388 18.1997C19.2323 20.3286 17.4752 22 15.3438 22V24C18.541 24 21.1766 21.4929 21.3363 18.2996L19.3388 18.1997ZM18 5V4H16V5H18ZM14 0H10V2H14V0ZM6 4V5H8V4H6ZM10 0C7.79086 0 6 1.79086 6 4H8C8 2.89543 8.89543 2 10 2V0ZM18 4C18 1.79086 16.2091 0 14 0V2C15.1046 2 16 2.89543 16 4H18ZM1 6H23V4H1V6ZM14 11V16H16V11H14ZM8 11V16H10V11H8Z" fill="currentColor"/>
</svg>
